<svg width="414" height="488" viewBox="0 0 414 488" fill="none" xmlns="http://www.w3.org/2000/svg">
<g opacity="0.5">
<circle cx="8.47446" cy="338.243" r="1.20298" transform="rotate(-90 8.47446 338.243)" fill="#777777"/>
<circle cx="28.5252" cy="331.425" r="1.20298" transform="rotate(-90 28.5252 331.425)" fill="#777777"/>
<circle cx="28.9256" cy="351.475" r="1.20298" transform="rotate(-90 28.9256 351.475)" fill="#777777"/>
<path d="M29.1267 331.626L8.67607 338.042M29.1267 331.626L-15.3835 322.203M29.1267 331.626L29.1267 351.075L8.67607 338.042M8.67607 338.042L-20.7969 381.75L-15.3835 322.203M8.67607 338.042L-15.3835 322.203" stroke="#777777" stroke-linecap="round" stroke-linejoin="round"/>
</g>
<g opacity="0.5">
<path d="M343 108L374.5 139.5L395 110.5V56L343 108Z" stroke="#777777" stroke-linecap="round" stroke-linejoin="round"/>
<circle cx="396" cy="55" r="3" fill="#777777"/>
<circle cx="374" cy="140" r="3" fill="#777777"/>
<circle cx="396" cy="110" r="3" fill="#777777"/>
<circle cx="343" cy="108" r="3" fill="#777777"/>
</g>
<g opacity="0.5">
<path d="M399 378L446 405L388.689 424.98L399 486L352 459V405L399 378Z" stroke="#777777" stroke-linecap="round" stroke-linejoin="round"/>
<circle cx="399" cy="379" r="3" fill="#777777"/>
<circle cx="390" cy="425" r="3" fill="#777777"/>
<circle cx="399" cy="485" r="3" fill="#777777"/>
<circle cx="352" cy="459" r="3" fill="#777777"/>
<circle cx="352" cy="405" r="3" fill="#777777"/>
</g>
<g opacity="0.5">
<circle cx="42.6629" cy="11.4415" r="3" transform="rotate(40.9501 42.6629 11.4415)" fill="#777777"/>
<circle cx="39.4735" cy="36.4781" r="3" transform="rotate(40.9501 39.4735 36.4781)" fill="#777777"/>
<circle cx="11.4149" cy="30.6671" r="3" transform="rotate(40.9501 11.4149 30.6671)" fill="#777777"/>
<circle cx="-3.17107" cy="74.941" r="3" transform="rotate(40.9501 -3.17107 74.941)" fill="#777777"/>
<path d="M12.1703 31.322L42.6622 11.4412L39.8503 36.8054M12.1703 31.322L39.8503 36.8054M12.1703 31.322L-3.77764 76.4015L39.8503 36.8054" stroke="#777777" stroke-linecap="round" stroke-linejoin="round"/>
</g>
<path d="M190.339 205.12V228.281H236.662V205.12H190.339Z" fill="#10C680"/>
<path d="M213.5 228.281L236.662 228.281L213.5 251.443V228.281Z" fill="#05AA63"/>
<path d="M213.5 181.959H259.823V158.797H236.662L213.5 181.959Z" fill="#64EDB2"/>
<path d="M167.178 205.12H236.662L259.823 181.959L190.339 181.959L167.178 205.12Z" fill="#2FDD96"/>
<path d="M110.351 328.824C106.482 328.824 103.474 327.773 101.329 325.67C99.2262 323.525 98.1747 320.517 98.1747 316.648V301.506H92.2441V294.124H92.875C94.5575 294.124 95.8614 293.683 96.7867 292.799C97.712 291.916 98.1747 290.633 98.1747 288.951V286.301H106.44V294.124H114.326V301.506H106.44V316.206C106.44 317.342 106.629 318.309 107.007 319.108C107.428 319.907 108.059 320.517 108.9 320.938C109.783 321.358 110.898 321.569 112.244 321.569C112.538 321.569 112.875 321.548 113.253 321.506C113.674 321.464 114.074 321.421 114.452 321.379V328.446C113.863 328.53 113.19 328.614 112.433 328.698C111.676 328.782 110.982 328.824 110.351 328.824Z" fill="white"/>
<path d="M124.615 328.446V281.443H132.817L150.419 305.354H146.508L163.732 281.443H171.933V328.446H163.29V291.222L166.634 292.042L148.779 315.827H147.77L130.356 292.042L133.196 291.222V328.446H124.615Z" fill="white"/>
<path d="M183.389 328.446V294.124H191.654V328.446H183.389ZM183.389 290.276V281.443H191.654V290.276H183.389Z" fill="white"/>
<path d="M202.44 328.446V294.124H210.2V300.875L209.569 299.676C210.368 297.615 211.672 296.059 213.481 295.007C215.331 293.914 217.477 293.367 219.916 293.367C222.44 293.367 224.669 293.914 226.604 295.007C228.581 296.101 230.116 297.636 231.209 299.613C232.303 301.548 232.85 303.798 232.85 306.364V328.446H224.585V308.32C224.585 306.805 224.29 305.502 223.701 304.408C223.113 303.314 222.292 302.473 221.241 301.884C220.231 301.253 219.033 300.938 217.645 300.938C216.299 300.938 215.1 301.253 214.049 301.884C212.997 302.473 212.177 303.314 211.588 304.408C210.999 305.502 210.705 306.805 210.705 308.32V328.446H202.44Z" fill="white"/>
<path d="M255.233 329.203C252.583 329.203 250.27 328.614 248.293 327.436C246.358 326.258 244.865 324.618 243.813 322.515C242.804 320.412 242.299 317.951 242.299 315.133V294.124H250.564V314.439C250.564 315.869 250.837 317.131 251.384 318.225C251.973 319.276 252.793 320.118 253.845 320.749C254.938 321.337 256.158 321.632 257.504 321.632C258.85 321.632 260.049 321.337 261.1 320.749C262.152 320.118 262.972 319.255 263.561 318.162C264.15 317.068 264.444 315.764 264.444 314.25V294.124H272.709V328.446H264.886V321.695L265.58 322.894C264.78 324.997 263.455 326.574 261.605 327.625C259.796 328.677 257.672 329.203 255.233 329.203Z" fill="white"/>
<path d="M296.606 329.203C292.947 329.203 289.75 328.34 287.016 326.616C284.324 324.849 282.474 322.473 281.464 319.487L287.647 316.521C288.53 318.456 289.75 319.97 291.306 321.064C292.905 322.158 294.671 322.704 296.606 322.704C298.12 322.704 299.319 322.368 300.202 321.695C301.085 321.022 301.527 320.139 301.527 319.045C301.527 318.372 301.338 317.825 300.959 317.405C300.623 316.942 300.139 316.563 299.508 316.269C298.919 315.933 298.267 315.659 297.552 315.449L291.937 313.872C289.035 313.03 286.827 311.748 285.313 310.023C283.841 308.299 283.105 306.259 283.105 303.903C283.105 301.8 283.63 299.971 284.682 298.414C285.775 296.816 287.269 295.575 289.161 294.692C291.096 293.809 293.304 293.367 295.786 293.367C299.024 293.367 301.885 294.145 304.366 295.701C306.848 297.258 308.614 299.445 309.666 302.263L303.357 305.228C302.768 303.672 301.779 302.431 300.391 301.506C299.003 300.58 297.447 300.118 295.723 300.118C294.335 300.118 293.241 300.433 292.442 301.064C291.643 301.695 291.243 302.515 291.243 303.525C291.243 304.156 291.412 304.702 291.748 305.165C292.084 305.628 292.547 306.006 293.136 306.301C293.767 306.595 294.482 306.869 295.281 307.121L300.77 308.761C303.588 309.602 305.754 310.864 307.268 312.547C308.825 314.229 309.603 316.29 309.603 318.73C309.603 320.791 309.056 322.62 307.962 324.219C306.869 325.775 305.355 326.995 303.42 327.878C301.485 328.761 299.214 329.203 296.606 329.203Z" fill="white"/>
<path d="M326.175 328.446V288.761H317.09V281.443H334.755V328.446H326.175Z" fill="white"/>
</svg>
