<svg width="332" height="369" viewBox="0 0 332 369" fill="none" xmlns="http://www.w3.org/2000/svg">
<path d="M27.8058 102.736C27.8058 102.736 40.5063 117.153 57.0191 119.964L32.0858 132.483L0 109.231L27.8058 102.736Z" fill="#43675E"/>
<path d="M32.0859 132.483C32.0859 132.483 35.5617 125.298 34.7615 119.964C34.7615 119.964 45.9888 113.386 48.9311 108.438L57.0192 119.964L32.0859 132.483Z" fill="#CEEBE9"/>
<path d="M204.398 196.37C204.398 196.37 225.523 206.051 238.626 199.025L242.635 210.148C242.635 210.148 225.523 213.992 216.434 211.287C207.344 208.582 203.064 206.981 203.064 206.981L204.398 196.37Z" fill="#43675E"/>
<path d="M204.398 196.37C204.398 196.37 210.964 192.235 216.832 191.988C216.832 191.988 214.961 199.007 218.305 203.1C218.305 203.1 206.815 202.652 203.064 206.962L204.398 196.37Z" fill="#CEEBE9"/>
<path d="M54.4004 166.175C54.4004 166.175 54.4004 162.571 58.6763 161.088C62.9522 159.604 64.9342 158.072 65.8165 156.118C66.6988 154.164 65.8165 152.161 65.8165 152.161L69.3702 152.586C69.3702 152.586 68.9598 158.739 65.8165 160.409C62.6732 162.078 57.8761 164.343 57.3385 166.175L56.8051 168.011L54.4004 166.175Z" fill="#6FC29F"/>
<path d="M229.801 159.605V166.175L234.528 163.542C234.528 163.542 234.081 158.884 229.801 159.605Z" fill="#43675E"/>
<path d="M231.676 153.383C231.676 153.383 237.831 154.775 241.045 158.55L244.241 162.344L237.959 168.034C237.959 168.034 233.547 161.809 231.676 160.72L229.801 159.627L231.676 153.383Z" fill="#CEEBE9"/>
<path d="M127.753 41.0731L125.611 38.3037L122.611 39.6884L125.18 42.7651L127.753 41.0731Z" fill="#43675E"/>
<path d="M126.677 43.2583C126.677 43.2583 123.292 44.5786 120.797 43.2583C118.302 41.9381 117.465 40.4586 117.465 40.4586L120.083 38.3037C120.083 38.3037 120.973 42.0443 123.649 41.995C126.324 41.9457 127.752 41.0731 127.752 41.0731L126.677 43.2583Z" fill="#CEEBE9"/>
<path d="M194.022 64.2376L197.933 59.2716L193.653 55.3071L189.422 61.1343L194.022 64.2376Z" fill="#6FC29F"/>
<path d="M189.363 63.7938C189.363 63.7938 184.984 59.1844 186.006 54.4802C187.028 49.776 189.289 47.606 189.289 47.606L194.796 50.5233C194.796 50.5233 188.374 54.0705 189.995 58.2739C191.616 62.4774 194.037 64.2377 194.037 64.2377L189.363 63.7938Z" fill="#CEEBE9"/>
<path d="M202.301 245.563L195.395 244.008L197.036 248.875C197.036 248.875 202.071 249.581 202.301 245.563Z" fill="#CEEBE9"/>
<path d="M42.8772 215.38C42.8772 215.38 49.2911 236.356 63.7234 240.613L57.4983 250.829C57.4983 250.829 42.9306 241.682 39.0076 233.628C35.0846 225.574 33.4883 221.572 33.4883 221.572L42.8772 215.38Z" fill="#43675E"/>
<path d="M42.8772 215.38C42.8772 215.38 50.5878 217.095 54.7365 220.957C54.7365 220.957 47.8508 224.372 46.8126 229.425C46.8126 229.425 39.4549 221.245 33.4883 221.572L42.8772 215.38Z" fill="#CEEBE9"/>
<path d="M49.7726 51.8589L45.9316 52.8301L48.1722 54.799C48.1722 54.799 50.8354 53.8847 49.7726 51.8589Z" fill="#43675E"/>
<path d="M53.6826 51.874C53.6826 51.874 53.7811 55.1594 52.0412 57.3142L50.3136 59.4881L46.0664 57.1891C46.0664 57.1891 49.0497 54.0706 49.4108 52.9742L49.7719 51.8778L53.6826 51.874Z" fill="#CEEBE9"/>
<path opacity="0.5" d="M180.114 369C263.844 369 331.72 363.833 331.72 357.46C331.72 351.086 263.844 345.919 180.114 345.919C96.3842 345.919 28.5078 351.086 28.5078 357.46C28.5078 363.833 96.3842 369 180.114 369Z" fill="url(#paint0_linear_858_9912)"/>
<path d="M199.397 102.411L206.307 100.863L202.425 97.2358C202.425 97.2358 197.612 98.7382 199.397 102.411Z" fill="#43675E"/>
<path d="M192.416 102.19C192.416 102.19 192.416 96.3136 195.646 92.554L198.863 88.7944L206.319 93.1041C206.319 93.1041 200.812 98.533 200.106 100.46L199.396 102.399L192.416 102.19Z" fill="#CEEBE9"/>
<path d="M171.602 284.521C169.641 290.947 172.312 316.009 171.602 323.74C171.512 324.704 171.446 325.831 171.393 327.068C171.393 327.235 171.393 327.405 171.372 327.576C171.032 336.302 171.298 349.894 169.46 351.59C168.069 352.876 162.152 353.487 157.695 353.586C157.067 353.586 156.464 353.609 155.914 353.609C154.84 353.644 153.764 353.576 152.705 353.404C150.924 352.911 158.233 347.47 158.766 345.661C158.984 344.902 157.851 338.98 156.345 331.267L156.173 330.387C154.022 319.427 151.207 305.254 150.387 297.215C149.492 288.421 145.462 273.079 142.77 262.134C142.335 260.374 141.95 258.72 141.601 257.236C140.686 253.238 140.165 250.408 140.407 249.588C140.961 247.737 144.297 241.621 148.614 236.754C151.228 233.833 154.203 231.374 157.145 230.589C159.423 229.982 162.308 229.193 165.262 228.385L165.459 228.332C172.62 226.363 180.088 224.272 180.088 224.272C180.023 225.031 173.547 278.14 171.602 284.521Z" fill="#6FC29F"/>
<path d="M143.615 238.708C143.615 238.708 153.464 303.308 155.142 312.371C156.82 321.434 158.052 333.301 158.052 333.301" stroke="#1B232A" stroke-miterlimit="10"/>
<path d="M124.005 291.285C123.472 296.065 125.79 316.005 127.752 329.849C127.781 330.05 127.809 330.251 127.834 330.448C127.887 330.827 127.932 331.184 127.982 331.552C129.623 344.621 128.802 355.259 128.285 356.048C127.875 356.701 120.411 357.972 115.289 358.469H115.195L114.838 358.503H114.776C113.644 358.605 112.651 358.666 111.904 358.666C107.8 358.666 105.843 357.843 107.267 356.196C108.691 354.55 113.135 352.569 112.786 350.426C112.659 349.667 111.038 343.218 108.937 334.803C108.847 334.45 108.761 334.09 108.666 333.73C104.879 318.555 99.7204 297.716 98.7807 291.596C97.287 281.873 96.573 244.463 107.09 229.136L142.791 234.512L153.559 236.132V236.166C152.693 237.653 124.535 286.57 124.005 291.285Z" fill="#6FC29F"/>
<path d="M117.829 133.018C117.841 139.928 115.77 146.703 111.851 152.586H111.814C110.644 152.586 109.483 152.541 108.338 152.442C102.535 151.964 96.9193 150.299 91.8976 147.568C86.8759 144.837 82.5735 141.108 79.3018 136.652C76.03 132.195 73.8706 127.122 72.9798 121.799C72.089 116.476 72.4891 111.036 74.1511 105.874C74.3357 105.29 74.5614 104.713 74.7584 104.144C75.8669 101.246 77.3715 98.4911 79.2354 95.9458L79.4447 95.665C89.8022 96.1562 99.5601 100.306 106.703 107.257C113.846 114.208 117.829 123.43 117.829 133.018Z" fill="#6FC29F"/>
<path d="M116.876 233.104C116.876 233.104 89.4684 268.386 114.045 340.551" stroke="#1B232A" stroke-miterlimit="10"/>
<path d="M151.104 116.265C151.104 117.525 151.035 118.765 150.903 119.991C150.805 120.871 150.668 121.741 150.493 122.601C148.876 130.996 144.118 138.598 137.05 144.077C129.983 149.556 121.057 152.563 111.833 152.571C115.501 147.042 117.55 140.727 117.78 134.245C118.011 127.763 116.413 121.336 113.146 115.597C109.879 109.858 105.053 105.003 99.1429 101.508C93.2329 98.0139 86.4415 96.0003 79.4355 95.6652C80.1085 94.7585 80.8308 93.8821 81.5899 93.0399C85.8055 88.3542 91.2284 84.7243 97.3594 82.4844C103.49 80.2445 110.133 79.4666 116.674 80.2223C123.216 80.978 129.446 83.243 134.793 86.8089C140.139 90.3747 144.429 95.1267 147.268 100.627C147.551 101.174 147.817 101.731 148.068 102.293C150.072 106.718 151.105 111.468 151.104 116.265Z" fill="url(#paint1_linear_858_9912)"/>
<path d="M90.9437 124.012C90.9437 124.012 89.7126 136.865 91.2309 137.976C92.7492 139.088 93.7136 137.104 93.4756 133.894L90.9437 124.012Z" fill="#D27358"/>
<path d="M180.637 222.998C180.503 223.435 180.327 223.86 180.112 224.269C178.942 226.496 175.467 230.718 164.65 233.833C159.861 235.157 154.954 236.084 149.987 236.602C149.532 236.655 149.081 236.705 148.629 236.746C131.805 238.476 118.673 236.132 111.188 233.791C107.011 232.486 104.594 231.177 104.266 230.581C103.35 228.924 105.053 223.248 105.127 222.994C105.127 223.089 105.451 224.36 121.726 226.689H121.771C122.851 226.845 123.996 227 125.214 227.167L125.53 227.205C125.99 227.266 126.458 227.315 126.934 227.353H126.983C138.699 228.358 154.337 224.405 165.7 220.786C169.049 219.72 172.024 218.684 174.416 217.812C176.094 217.205 177.486 216.674 178.52 216.271C179.784 215.778 180.518 215.475 180.571 215.448C180.571 215.448 181.113 217.671 180.612 219.527C180.112 221.382 181.138 221.404 180.637 222.998Z" fill="url(#paint2_linear_858_9912)"/>
<path d="M180.334 217.391C179.591 219.072 175.41 221.944 165.524 224.979C160.148 226.593 154.678 227.926 149.139 228.97C141.032 230.571 132.702 230.971 124.46 230.153C115.252 229.209 108.912 226.902 107.073 225.673C105.333 224.508 105.021 223.59 105.128 222.994C105.172 222.696 105.324 222.421 105.559 222.213H105.596C105.973 222.331 109.539 223.298 130.603 224.834C142.832 225.726 156.131 222.179 165.738 218.734C170.385 217.1 174.917 215.199 179.308 213.043C179.668 213.399 179.964 213.805 180.186 214.246C180.39 214.626 180.528 215.033 180.597 215.452C180.707 216.109 180.616 216.78 180.334 217.391Z" fill="#354E4C"/>
<path d="M111.705 135.135C109.473 135.996 97.2689 142.385 97.2689 142.385C91.1135 130.848 90.5308 121.974 90.5432 118.951C90.5432 118.219 90.5842 117.813 90.5842 117.813L92.4554 116.675L98.0691 113.26C98.0691 113.26 111.439 120.567 114.29 125.082C117.142 129.596 113.954 134.27 111.705 135.135Z" fill="#F8AD88"/>
<path d="M105.034 128.507C105.034 128.507 107.427 125.271 110.045 125.677C112.663 126.083 112.971 129.031 112.487 131.929C112.002 134.828 107.275 135.697 102.663 138.041C98.0502 140.386 96.4785 143.227 96.4785 143.227C96.4785 143.227 113.713 137.419 114.046 134.881C114.378 132.343 116.126 125.533 113.307 124.369C110.488 123.204 107.09 122.711 105.777 124.406C104.464 126.102 105.034 128.507 105.034 128.507Z" fill="#D27358"/>
<path d="M105.56 127.016C104.197 128.018 104.132 132.589 104.132 132.589C103.587 131.251 103.201 129.862 102.983 128.447C102.634 126.14 100.656 121.618 97.7918 121.026C95.7154 120.601 92.2807 119.509 90.5449 118.94C90.5449 118.207 90.5859 117.801 90.5859 117.801L92.4572 116.663C96.0109 116.003 101.456 116.231 101.456 116.231C101.456 116.231 106.922 126.03 105.56 127.016Z" fill="#D27358"/>
<path d="M174.42 217.838C171.61 219.261 168.69 220.491 165.684 221.518C162.811 222.543 159.332 223.658 155.134 224.864C150.17 226.29 145.047 227.191 139.864 227.55C135.575 227.846 131.266 227.789 126.987 227.38H126.938C126.465 227.334 125.997 227.285 125.535 227.232L125.26 227.198H125.219C124.029 227.056 122.881 226.897 121.776 226.72H121.731C112.268 225.202 106.112 222.49 105.6 222.258H105.563L103.732 190.121C103.732 190.121 103.991 156.422 107.709 143.899C108.374 141.664 109.145 140.105 110.048 139.532C116.006 135.738 166.267 139.532 171.601 148.595C175.336 154.923 177.613 183.85 178.647 200.736C178.807 203.343 178.934 205.668 179.057 207.565C179.181 209.906 179.263 211.624 179.3 212.497C179.3 212.876 179.328 213.104 179.328 213.104C179.378 213.172 180.227 214.792 174.42 217.838Z" fill="#6FC29F"/>
<path d="M115.054 132.127C115.054 132.506 115.054 132.885 115.034 133.246L115.009 133.86L111.706 135.135C113.577 133.568 114.988 125.328 110.548 124.835C110.227 124.801 109.902 124.801 109.58 124.835C105.829 125.214 104.311 130.196 104.311 130.196L101.545 119.486C101.545 119.486 98.2623 120.226 90.5846 117.836C82.9068 115.446 79.6198 108.108 79.8948 103.161C80.1697 98.2144 84.8888 97.8085 86.0501 99.1249C87.2114 100.441 89.6161 103.161 89.6161 103.161C89.3804 102.126 89.3401 101.061 89.4971 100.013C89.5751 99.3108 89.69 98.6621 89.7885 98.1841C98.3807 101.224 105.551 106.948 110.056 114.364C110.496 115.083 110.907 115.817 111.287 116.569C113.607 121.09 114.886 126.009 115.042 131.011C115.05 131.383 115.054 131.755 115.054 132.127Z" fill="url(#paint3_linear_858_9912)"/>
<path d="M116.646 121.038C117.657 124.269 118.208 127.607 118.288 130.97C118.288 131.258 118.288 131.546 118.288 131.838C118.288 132.13 118.288 132.347 118.288 132.597" stroke="#231F20" stroke-miterlimit="10"/>
<path d="M118.284 131.838C118.284 132.707 115.033 133.246 115.033 133.246C115.686 128.063 112.44 119.076 112.44 119.076C105.156 102.854 89.776 98.1839 89.776 98.1839C86.3944 96.9887 82.8489 96.2354 79.2422 95.9456C79.9771 94.941 80.766 93.9711 81.6058 93.0396C88.414 93.8894 94.8963 96.2574 100.494 99.9394C106.092 103.621 110.636 108.507 113.737 114.174C114.125 114.88 114.489 115.598 114.828 116.329C115.546 117.86 116.154 119.433 116.646 121.037C117.75 124.224 118.271 130.969 118.284 131.838Z" fill="#354E4C"/>
<path d="M118.272 132.601C118.272 132.806 118.272 133.011 118.272 133.212C118.026 140.08 115.815 146.765 111.866 152.586H111.829C110.66 152.586 109.498 152.541 108.354 152.442C112.387 146.932 114.696 140.499 115.026 133.853L118.272 132.601Z" stroke="#231F20" stroke-miterlimit="10"/>
<path opacity="0.4" d="M110.045 114.364C108.173 112.168 104.661 107.3 102.309 105.544C101.21 103.317 100.323 99.4928 98.7639 98.184C94.6398 94.7279 94.25 91.1997 94.25 91.1997L104.743 94.6141L110.045 114.364Z" fill="#354E4C"/>
<path d="M148.084 102.285C138.961 110.196 127.286 115.126 114.845 116.322C113.672 116.436 112.488 116.515 111.296 116.561C111.045 116.075 110.787 115.594 110.512 115.123C110.368 114.865 110.216 114.611 110.061 114.364C111.292 114.338 112.523 114.277 113.754 114.175C126.24 113.174 138.025 108.412 147.3 100.62C147.391 100.79 147.477 100.965 147.559 101.139C147.731 101.515 147.912 101.902 148.084 102.285Z" fill="#CEEBE9"/>
<path d="M150.888 119.99C150.789 120.87 150.652 121.74 150.477 122.6C141.152 129.104 129.896 132.811 118.223 133.223C117.468 133.249 116.709 133.265 115.946 133.265H115.002C115.002 132.885 115.022 132.506 115.022 132.145C115.022 131.785 115.022 131.387 115.002 131.03C115.273 131.03 115.544 131.03 115.823 131.03C116.643 131.03 117.452 131.014 118.248 130.981C130.098 130.538 141.505 126.697 150.888 119.99Z" fill="#CEEBE9"/>
<path d="M105.559 131.838C105.559 131.838 106.716 128.458 108.763 127.388C110.811 126.318 111.972 127.802 111.796 129.82C111.796 129.82 111.263 127.965 109.703 128.542C108.144 129.118 105.559 131.838 105.559 131.838Z" fill="#D27358"/>
<path d="M93.3756 120.07C93.2941 120.205 93.2481 120.355 93.2411 120.509C93.2342 120.663 93.2666 120.817 93.3358 120.957C93.4049 121.097 93.5088 121.221 93.639 121.317C93.7693 121.414 93.9222 121.48 94.0855 121.512C95.3369 121.754 96.5248 122.22 97.5818 122.885C99.5022 124.171 99.7607 124.247 99.5063 122.965C99.2519 121.683 97.6146 120.267 96.0224 119.774C94.8816 119.429 93.8475 119.334 93.3756 120.07Z" fill="url(#paint4_linear_858_9912)"/>
<path d="M94.6784 124.176C94.9414 123.331 94.8103 122.553 94.3855 122.441C93.9608 122.328 93.4033 122.922 93.1403 123.767C92.8773 124.613 93.0084 125.39 93.4331 125.503C93.8578 125.616 94.4154 125.022 94.6784 124.176Z" fill="#01010B"/>
<path d="M101.836 137.369C101.577 137.737 101.202 138.024 100.763 138.191C100.323 138.358 99.8391 138.399 99.3744 138.306C98.2172 138.143 96.8343 137.385 95.4883 135.822C95.4883 135.822 98.9476 133.659 99.7601 131.929C100.153 132.447 100.517 132.982 100.852 133.534C101.644 134.805 102.423 136.501 101.836 137.369Z" fill="#7A2B18"/>
<path d="M101.838 137.37C101.578 137.738 101.203 138.024 100.764 138.191C100.324 138.359 99.8402 138.399 99.3754 138.307C99.1484 137.461 99.1653 136.576 99.4246 135.738C99.6838 134.901 100.176 134.141 100.853 133.534C101.645 134.805 102.424 136.501 101.838 137.37Z" fill="#EE7671"/>
<path opacity="0.65" d="M139.865 227.55C120.139 228.927 105.559 222.239 105.559 222.239L103.729 190.102C103.729 190.102 103.987 156.403 107.705 143.879C111.218 148.504 121.341 163.091 119.371 175.295C117.016 189.882 120.639 219.963 139.865 227.55Z" fill="#354E4C"/>
<path d="M104.518 203.802C104.518 203.802 113.3 191.616 115.872 174.006L113.821 163.429L104.227 198.563L104.518 203.802Z" fill="#354E4C"/>
<path d="M124.005 135.135C97.0283 147.408 80.7946 168.099 74.2248 177.758C72.5505 180.22 71.5082 181.965 71.0732 182.667C68.9353 186.127 66.4403 185.304 65.9027 182.667C65.3652 180.03 67.3308 176.897 79.8836 158.44C87.2331 147.632 98.76 140.757 107.082 136.918C110.346 135.378 113.731 134.069 117.21 133.003C121.814 130.15 124.005 135.135 124.005 135.135Z" fill="url(#paint5_linear_858_9912)"/>
<path opacity="0.65" d="M179.281 212.452C173.642 215.946 153.178 223.074 142.422 223.218C130.37 223.378 118.839 217.118 118.733 213.514C118.626 209.91 112.109 172.583 112.109 172.583C114.727 134.043 168.517 189.83 178.649 200.706C179.002 206.518 179.203 210.904 179.281 212.452Z" fill="#354E4C"/>
<path opacity="0.29" d="M124.005 135.135C97.0281 147.408 80.7944 168.099 74.2246 177.758C78.4308 170.751 91.0492 150.287 97.9104 145.204C106.216 139.039 107.074 136.93 107.074 136.93C110.337 135.389 113.723 134.08 117.201 133.014C121.814 130.15 124.005 135.135 124.005 135.135Z" fill="#354E4C"/>
<path d="M72.7136 187.91L71.5974 188.475L64.4243 192.003C61.4821 187.553 62.6885 186.935 62.9553 182.735C63.1194 180.129 64.6829 178.941 65.8278 178.433C66.2288 178.248 66.6577 178.12 67.0999 178.054C67.0712 178.114 66.6895 178.968 67.2148 180.759C67.7523 182.621 68.688 182.367 71.0475 182.697C73.4071 183.027 72.7136 187.91 72.7136 187.91Z" fill="#CEEBE9"/>
<path opacity="0.65" d="M71.5974 188.475L64.4243 192.003C61.4821 187.553 62.6885 186.935 62.9553 182.735C63.1194 180.129 64.6829 178.941 65.8278 178.433C65.9139 179.765 66.2586 182.701 67.6333 183.198C69.4225 183.847 71.8928 182.61 72.1473 185.391C72.274 186.446 72.0837 187.513 71.5974 188.475Z" fill="#354E4C"/>
<path d="M82.074 209.91C82.074 209.91 81.5693 214.777 77.1498 213.172C77.0061 213.123 76.8584 213.062 76.7066 212.998C71.8931 210.9 66.5461 200.391 64.6749 194.583C63.9732 192.413 64.3056 190.789 65.1263 189.651C66.4928 187.72 69.2299 187.041 70.8262 187.041C73.3663 187.041 78.1798 192.732 78.1798 192.732L82.074 209.91Z" fill="#6FC29F"/>
<path d="M135.511 217.417C129.959 219.049 108.703 219.622 96.7696 218.366C94.012 218.074 91.7551 217.687 90.3024 217.194C90.0005 217.086 89.707 216.959 89.4243 216.814C87.7828 215.98 87.6228 215.141 88.263 214.352C89.0303 213.404 90.9836 212.523 93.0313 211.818C95.0363 211.146 97.082 210.582 99.1579 210.13C99.1579 210.13 100.487 210.319 102.72 210.509C107.348 210.913 112.001 211.007 116.643 210.79C120.353 210.625 124.042 210.18 127.674 209.462L135.511 217.417Z" fill="url(#paint6_linear_858_9912)"/>
<path d="M98.518 211.268C92.3626 221.511 79.1327 216.579 76.7239 212.998C75.8581 211.712 75.8089 208.73 76.092 205.44C76.5396 201.17 77.2424 196.926 78.1971 192.728C78.1971 192.728 79.8016 189.64 84.3525 168.379C88.9033 147.119 106.545 142.385 106.545 142.385C107.475 142.552 108.355 142.905 109.122 143.42C112.606 145.75 113.594 151.387 114.046 159.233C114.559 168.747 104.665 200.994 98.518 211.268Z" fill="#6FC29F"/>
<path opacity="0.65" d="M78.5543 207.891L77.1673 213.172C77.0237 213.123 76.876 213.062 76.7241 212.998C71.9107 210.9 66.5637 200.391 64.6925 194.583C63.9908 192.413 64.3232 190.789 65.1439 189.651C66.4447 194.784 73.9173 204.344 73.9173 204.344L78.5543 207.891Z" fill="#354E4C"/>
<path opacity="0.65" d="M98.518 211.268C92.3626 221.511 79.1327 216.579 76.7239 212.998C75.8581 211.711 75.8089 208.73 76.092 205.44C82.6577 208.286 90.8156 207.641 96.4785 191.988C102.79 174.537 107.706 143.868 107.706 143.868C108.117 143.593 108.607 143.437 109.113 143.42C112.597 145.75 113.586 151.387 114.038 159.233C114.559 168.747 104.665 200.994 98.518 211.268Z" fill="#354E4C"/>
<path opacity="0.29" d="M135.511 217.417C128.379 219.515 95.3334 219.861 89.4243 216.829C87.7828 215.995 87.6228 215.156 88.263 214.367C92.1144 214.745 95.9868 214.911 99.8596 214.864C110.48 214.754 116.459 210.926 116.643 210.809L126.902 208.688L127.686 209.485L135.511 217.417Z" fill="#354E4C"/>
<path opacity="0.65" d="M102.72 210.528C102.66 210.839 102.565 211.143 102.437 211.435C101.637 213.248 99.942 213.332 99.1131 215.471C98.7274 216.473 97.7261 217.528 96.77 218.366C94.0124 218.074 91.7554 217.687 90.3027 217.194L93.0275 211.833C95.0325 211.161 97.0782 210.597 99.1541 210.145C99.1541 210.145 100.488 210.335 102.72 210.528Z" fill="#354E4C"/>
<path d="M89.4234 217.861C86.2145 217.406 82.074 216.416 82.074 216.416C82.074 216.416 77.1292 216.127 74.9338 210.099C74.2912 208.238 73.9483 206.301 73.9161 204.348C73.5057 192.728 78.1961 192.728 78.1961 192.728C78.1961 192.728 76.6326 199.177 77.1251 204.302C77.2082 205.368 77.4329 206.421 77.7939 207.436C79.7226 212.531 89.4234 217.861 89.4234 217.861Z" fill="#CEEBE9"/>
<path opacity="0.29" d="M89.4243 217.861C86.2153 217.406 82.0748 216.416 82.0748 216.416C82.0748 216.416 77.13 216.127 74.9346 210.099C74.9346 210.099 73.7036 202.986 75.7553 200.27C76.1095 201.64 76.5619 202.987 77.1095 204.302C77.1927 205.368 77.4173 206.421 77.7784 207.436C79.7235 212.531 89.4243 217.861 89.4243 217.861Z" fill="#354E4C"/>
<path opacity="0.65" d="M90.4629 161.088L91.9853 160.409C96.6681 162.744 101.789 164.234 107.074 164.799L105.269 172.583H103.73L90.4629 161.088Z" fill="#354E4C"/>
<path d="M93.5117 174.685L94.9151 174.006L101.592 175.797L96.5771 188.403H94.9931L93.5117 174.685Z" fill="#28383B"/>
<path d="M96.2248 214.652C96.2248 214.69 96.2043 215.995 93.5124 217.398C93.1657 217.564 92.7933 217.68 92.4085 217.74C88.4814 218.446 78.8667 216.351 76.5934 206.704C74.0533 195.949 78.1978 192.735 78.1978 192.735C77.57 194.655 78.0337 197.007 78.9734 199.367L79.0801 199.629C79.2196 199.974 79.3715 200.319 79.5356 200.66C79.6587 200.93 79.7859 201.203 79.9255 201.48C80.7281 203.042 81.6227 204.561 82.6051 206.032C82.6063 206.043 82.6063 206.053 82.6051 206.063C82.7815 206.328 82.9539 206.582 83.1221 206.822C83.749 207.67 84.5161 208.423 85.3955 209.052C85.7607 209.325 86.1465 209.599 86.5486 209.864L86.5896 209.887C90.644 212.539 96.2248 214.652 96.2248 214.652Z" fill="white"/>
<path opacity="0.65" d="M115.978 133.254C115.978 133.254 113.011 139.46 108.337 141.19C103.663 142.92 98.1602 146.657 98.1602 146.657C98.1602 146.657 106.663 141.243 109.777 145.204C112.892 149.164 119.454 142.806 119.548 138.041C119.642 133.276 117.205 133.011 117.205 133.011L115.978 133.254Z" fill="#354E4C"/>
<path d="M148.252 102.376C139.129 110.286 127.454 115.217 115.013 116.413C113.839 116.527 112.656 116.606 111.463 116.652C111.213 116.166 110.955 115.684 110.68 115.214C116.178 114.835 128.169 113.473 137.025 108.677C142.564 105.677 145.823 103.108 147.727 101.223C147.899 101.598 148.08 101.978 148.252 102.376Z" fill="#43675E"/>
<path opacity="0.56" d="M96.2228 214.652C96.2228 214.69 96.2022 215.995 93.5103 217.399C93.1637 217.564 92.7913 217.68 92.4064 217.74C89.9461 217.635 87.5485 216.989 85.4135 215.854C83.2784 214.719 81.4678 213.128 80.1327 211.215C75.4546 204.602 77.7978 196.195 77.7978 196.195C77.7978 196.195 78.2081 197.516 78.9714 199.367L79.0781 199.629C79.2176 199.974 79.3694 200.319 79.5336 200.661C79.6567 200.93 79.7839 201.203 79.9234 201.48C80.675 203.065 81.5715 204.588 82.603 206.032C82.6043 206.043 82.6043 206.053 82.603 206.063C83.3915 207.168 84.3292 208.175 85.3934 209.06C85.7552 209.357 86.1406 209.628 86.5465 209.872L86.5876 209.895C90.6419 212.539 96.2228 214.652 96.2228 214.652Z" fill="#354E4C"/>
<path opacity="0.4" d="M123.803 102.02C123.803 102.02 121.772 106.83 126.183 111.155C130.595 115.48 133.381 116.728 133.935 121.622C134.489 126.516 142.491 130.901 146.902 129.433C151.314 127.965 132.54 133.253 132.54 133.253L117.455 105.893L123.803 102.02Z" fill="#354E4C"/>
<path opacity="0.4" d="M151.106 116.265C151.106 117.525 151.036 118.765 150.905 119.991C150.806 120.871 150.669 121.741 150.494 122.601C149.639 127.126 147.854 131.458 145.238 135.363C137.539 136.288 128.803 133.291 132.968 129.942C138.811 125.245 141.302 107.521 134.761 101.64C129.837 97.2281 130.247 88.5177 130.764 84.4395C137.961 88.1088 143.737 93.766 147.285 100.62C147.568 101.166 147.835 101.724 148.085 102.285C150.085 106.714 151.112 111.466 151.106 116.265Z" fill="#354E4C"/>
<path d="M181.808 144.528C180.191 146.805 172.394 149.798 164.474 151.619C158.27 153.045 151.987 153.755 148.536 152.84C148.062 152.718 147.607 152.541 147.182 152.313C144.646 150.887 142.668 146.152 141.769 140.499C140.464 132.434 141.306 122.506 145.709 117.707C153.198 109.55 148.934 104.345 141.297 100.635C133.661 96.9244 135.684 89.7884 135.142 83.1152C134.6 76.4421 132.737 77.4246 129.06 75.5733C125.384 73.722 127.255 66.18 120.172 57.0371C119.791 56.5477 119.417 56.0962 119.044 55.6789C118.67 55.2616 118.399 54.9809 118.088 54.6698C112.055 48.7098 107.644 51.908 106.803 46.9496C105.867 41.4372 94.5536 41.0503 94.5536 41.0503C94.5536 41.0503 89.42 41.7104 89.022 39.6125C88.8619 38.7778 89.3174 38.3909 90.1627 38.3188C91.439 38.205 93.5892 38.793 95.838 39.6125C99.5804 40.9782 107.738 41.8318 114.554 42.5336C121.37 43.2355 121.777 45.0451 121.777 49.9921C121.777 54.9392 126.455 61.1154 140.14 62.1017C152.077 62.9667 153.932 67.7923 152.11 72.0299C151.838 72.6632 151.5 73.2705 151.101 73.8434C150.079 75.3191 149.41 76.7304 149.303 78.0734C149.266 78.3784 149.266 78.6864 149.303 78.9915C149.607 81.4346 152.036 83.6388 157.991 85.5736C167.884 88.7869 161.2 96.5754 160.133 102.384C159.066 108.192 163.875 104.857 169.489 114.869C175.102 124.881 176.74 118.2 182.587 124.361C188.435 130.522 184.881 140.2 181.808 144.528Z" fill="url(#paint7_linear_858_9912)"/>
<path opacity="0.18" d="M170.842 138.701V146.626C168.847 148.425 166.719 150.093 164.474 151.619C160.485 154.332 155.401 156.904 151.707 155.898C150.846 155.663 149.766 154.574 148.535 152.841C146.574 150.075 144.231 145.678 141.769 140.5C140.464 132.434 141.305 122.506 145.708 117.707C153.197 109.55 148.933 104.345 141.297 100.635C133.66 96.9247 135.683 89.7887 135.141 83.1155C134.6 76.4423 132.737 77.4249 129.06 75.5736C125.383 73.7222 127.254 66.1803 120.171 57.0374C119.79 56.548 119.416 56.0965 119.043 55.6792C122.195 57.872 125.326 61.9616 126.885 66.3017C129.052 72.3716 133.405 71.2335 141.555 78.9993C149.705 86.7651 144.768 99.3034 149.18 101.022C153.591 102.741 154.395 109.93 153.993 115.245C153.591 120.56 157.735 126 164.412 127.851C171.089 129.703 170.842 138.701 170.842 138.701Z" fill="#354E4C"/>
<path d="M93.0996 214.853C90.3913 214.762 87.3341 213.354 84.6709 211.025C80.0339 206.988 76.5828 200.182 78.1955 192.728C78.4318 193.703 78.7263 194.665 79.0777 195.611C80.99 200.865 86.3493 211.45 98.5163 211.264C98.5163 211.268 100.519 215.099 93.0996 214.853Z" fill="#CEEBE9"/>
<path d="M90.4628 161.088C95.0997 163.604 100.231 165.243 105.56 165.91L103.73 172.583C103.73 172.583 95.625 171.266 91.0085 168.918C90.1465 168.479 89.4635 167.791 89.0634 166.96C88.6634 166.128 88.5683 165.199 88.7926 164.313C89.166 162.829 89.7446 161.221 90.4628 161.088Z" fill="#CEEBE9"/>
<path d="M93.511 174.685L89.4238 186.054L94.9924 188.403L99.8592 176.54L93.511 174.685Z" fill="#EE7671"/>
<path d="M147.194 153.922C143.029 156.251 127.908 155.173 119.7 149.957C119.208 149.646 118.736 149.316 118.297 148.975C110.525 142.905 116.311 140.325 117.218 133.01C118.125 125.696 107.554 119.562 106.216 107.039C104.878 94.5154 93.848 94.8417 93.3679 88.7831C93.3272 88.2629 93.2573 87.745 93.1586 87.2315C93.0601 86.7269 92.937 86.2299 92.7893 85.7443C92.7318 85.5508 92.6703 85.3649 92.6087 85.179C92.121 83.7304 91.4312 82.3467 90.5569 81.0628C89.1658 79.0522 87.6844 77.9633 87.1017 78.559C86.519 79.1546 86.8801 80.0196 87.3438 81.0363C87.3495 81.0494 87.3564 81.0621 87.3644 81.0742C87.8855 82.2123 88.5749 83.4605 88.5051 84.5531C88.3738 86.6548 85.2962 85.3573 85.0294 81.5181C84.7627 77.6788 83.6917 68.2931 79.8877 63.7217C76.0836 59.1502 73.917 54.1766 73.7856 50.0983C73.7282 48.3381 74.2411 47.1506 74.9552 46.9647C75.8908 46.7105 77.1711 48.1825 77.9302 52.3253C79.1121 58.7936 86.5067 62.7315 88.1604 63.5396L88.4887 63.6951C94.1065 65.2999 90.36 63.8165 97.9269 65.1785C105.494 66.5404 105.855 70.3683 103.713 72.7166C101.571 75.0649 105.317 74.2 104.382 78.2782C104.283 78.6969 104.217 79.1217 104.185 79.5491C103.918 82.9635 106.019 86.154 114.033 89.6784C114.473 89.8719 114.928 90.0578 115.404 90.2626C125.622 94.4661 124.173 100.885 123.102 106.454C122.031 112.024 128.847 112.524 130.325 119.987C131.802 127.449 136.738 127.392 147.309 131.834C157.88 136.277 151.593 151.448 147.194 153.922Z" fill="url(#paint8_linear_858_9912)"/>
<path opacity="0.18" d="M144.321 143.868L119.7 149.957C119.208 149.646 118.736 149.316 118.297 148.975C110.525 142.905 116.311 140.325 117.217 133.01C118.124 125.696 107.554 119.562 106.216 107.039C104.878 94.5154 93.8476 94.8417 93.3675 88.7831C93.3268 88.2629 93.257 87.745 93.1582 87.2314C94.7217 91.7081 99.6131 92.0002 105.112 95.6649C111.169 99.7015 113.758 104.254 111.813 111.033C109.868 117.813 120.176 128.458 130.337 131.14C140.497 133.822 144.321 143.868 144.321 143.868Z" fill="#354E4C"/>
<path d="M184.882 207.064C181.952 210.202 155.824 218.468 144.367 220.384C143.092 220.618 141.797 220.745 140.498 220.763C133.009 220.638 123.029 214.841 123.029 214.841C123.029 214.841 111.576 146.687 109.056 143.383C109.056 143.383 108.112 141.937 109.971 142.791C109.971 142.791 129.065 151.827 137.625 152.309C138.047 152.336 138.471 152.336 138.893 152.309C146.645 151.816 183.277 142.787 183.277 142.787C183.277 142.787 187.82 166.896 187.409 190.258C187.409 190.258 188.23 203.483 184.882 207.064Z" fill="url(#paint9_linear_858_9912)"/>
<path d="M144.367 220.388C143.092 220.621 141.797 220.748 140.498 220.767C133.009 220.642 123.029 214.845 123.029 214.845C123.029 214.845 111.576 146.687 109.056 143.383C109.056 143.383 108.112 141.937 109.971 142.791C109.971 142.791 129.065 151.827 137.625 152.309C137.625 152.309 147.437 208.988 144.367 220.388Z" fill="url(#paint10_linear_858_9912)"/>
<path d="M90.6426 176.142C91.4241 173.73 91.1881 171.533 90.1156 171.236C89.0431 170.939 87.5401 172.655 86.7587 175.067C85.9772 177.48 86.2132 179.676 87.2857 179.973C88.3582 180.27 89.8612 178.555 90.6426 176.142Z" fill="#CEEBE9"/>
<path d="M146.242 160.409L181.808 153.053L182.587 164.4L147.58 172.583L146.242 160.409Z" fill="#CEEBE9"/>
<path opacity="0.65" d="M181.807 153.053L179.599 152.313L144.305 159.483L145.844 172.211L147.579 172.583L146.242 160.409L181.807 153.053Z" fill="#354E4C"/>
<path d="M159.094 210.058C158.394 210.144 157.682 210.095 157.003 209.912C156.325 209.73 155.695 209.418 155.154 208.998C154.614 208.578 154.174 208.058 153.863 207.471C153.552 206.885 153.377 206.245 153.349 205.592L151.707 182.989C151.613 181.622 152.074 180.271 153.001 179.202C153.928 178.133 155.254 177.423 156.718 177.211C157.418 177.125 158.13 177.174 158.809 177.357C159.487 177.539 160.117 177.85 160.657 178.271C161.198 178.691 161.638 179.211 161.949 179.797C162.26 180.384 162.435 181.024 162.463 181.677L164.104 204.28C164.2 205.647 163.739 206.998 162.812 208.067C161.885 209.136 160.558 209.846 159.094 210.058Z" fill="#28383B"/>
<path d="M160.326 208.646C159.686 208.725 159.035 208.68 158.415 208.514C157.795 208.347 157.219 208.063 156.725 207.679C156.23 207.295 155.827 206.82 155.542 206.285C155.257 205.749 155.096 205.164 155.07 204.568L153.576 183.922C153.48 182.668 153.898 181.425 154.746 180.442C155.594 179.458 156.811 178.805 158.155 178.611C158.796 178.531 159.447 178.576 160.068 178.743C160.689 178.909 161.265 179.194 161.76 179.578C162.255 179.962 162.657 180.438 162.942 180.974C163.226 181.511 163.386 182.096 163.412 182.693L164.898 203.354C164.989 204.605 164.57 205.842 163.724 206.821C162.878 207.801 161.666 208.452 160.326 208.646Z" fill="#EE7671"/>
<path d="M179.202 203.764C178.569 203.842 177.924 203.797 177.31 203.632C176.696 203.466 176.126 203.185 175.637 202.805C175.147 202.424 174.749 201.954 174.467 201.424C174.185 200.893 174.026 200.314 173.999 199.723L172.526 179.271C172.443 178.039 172.86 176.822 173.695 175.858C174.531 174.894 175.725 174.253 177.044 174.059C177.677 173.98 178.322 174.025 178.935 174.189C179.549 174.354 180.119 174.635 180.608 175.015C181.097 175.395 181.496 175.865 181.777 176.396C182.059 176.926 182.217 177.505 182.243 178.095L183.716 198.532C183.804 199.767 183.39 200.988 182.555 201.956C181.72 202.923 180.524 203.568 179.202 203.764Z" fill="#28383B"/>
<path d="M180.285 202.485C179.706 202.557 179.117 202.516 178.556 202.366C177.995 202.215 177.474 201.958 177.026 201.61C176.578 201.263 176.214 200.833 175.956 200.348C175.699 199.863 175.553 199.334 175.529 198.794L174.183 180.099C174.107 178.968 174.489 177.852 175.256 176.968C176.022 176.084 177.118 175.496 178.328 175.319C178.907 175.247 179.496 175.288 180.057 175.438C180.619 175.589 181.14 175.846 181.587 176.194C182.035 176.541 182.399 176.971 182.657 177.456C182.915 177.941 183.06 178.47 183.084 179.01L184.43 197.705C184.506 198.836 184.124 199.952 183.358 200.836C182.591 201.72 181.496 202.308 180.285 202.485Z" fill="#EE7671"/>
<path d="M67.3958 30.7086C66.054 32.0478 63.3251 34.6427 58.7783 34.123C57.0156 33.8858 55.3195 33.3343 53.7843 32.4993L53.5011 32.3551C48.5769 29.6995 41.6459 20.8904 36.8899 13.6178C36.4413 12.935 36.0145 12.2673 35.6096 11.6147C35.6096 11.6147 35.5809 11.5692 35.5645 11.5465C33.4634 8.17003 31.9779 5.3437 31.6086 3.95898C30.8494 1.17438 32.2282 0.32458 33.3649 0.0817806C33.9674 -0.0430092 34.5942 -0.0247374 35.1869 0.134893C38.4651 0.980899 41.6541 2.09825 44.7154 3.47338C44.7512 3.48679 44.7856 3.5033 44.818 3.5227C55.2739 8.22314 62.7383 14.9494 66.8377 18.1362C66.9485 18.2272 67.0634 18.3145 67.1701 18.3941L67.2276 18.4397C72.3406 22.4345 69.1891 28.9218 67.3958 30.7086Z" fill="url(#paint11_linear_858_9912)"/>
<path opacity="0.15" d="M67.2283 18.4513L64.1301 17.5749C58.5981 11.9168 52.065 7.17007 44.8105 3.53809C55.2746 8.22335 62.739 14.9496 66.8385 18.1364C66.9493 18.2274 67.0642 18.3147 67.1709 18.3944L67.2283 18.4513Z" fill="#43675E"/>
<path opacity="0.15" d="M58.783 34.138C57.0203 33.9008 55.3242 33.3493 53.7889 32.5142L53.5058 32.3701C48.5815 29.7145 41.6506 20.9054 36.8945 13.6328C37.3377 14.1526 51.692 30.7691 57.2031 33.144C57.7878 33.3886 58.3223 33.7249 58.783 34.138Z" fill="#43675E"/>
<path d="M67.3972 30.7085C65.6163 32.4802 61.4101 36.4598 53.7898 32.5143C51.6354 29.65 52.2386 25.071 55.4682 21.539C58.6977 18.0071 63.4291 16.702 66.8391 18.1474C66.9499 18.2385 67.0648 18.3257 67.1715 18.4054C72.3666 22.385 69.1987 28.9141 67.3972 30.7085Z" fill="#354E4C"/>
<path d="M66.7107 30.3189C69.7981 26.9401 70.0104 22.4122 67.185 20.2056C64.3596 17.999 59.5663 18.9492 56.4789 22.328C53.3915 25.7068 53.1791 30.2346 56.0046 32.4413C58.83 34.6479 63.6233 33.6977 66.7107 30.3189Z" fill="#1B232A"/>
<path d="M49.41 36.4904C49.1638 36.2931 39.4507 28.3452 45.4091 22.0059L50.2595 26.7974L51.3059 27.833C51.3059 27.833 47.9163 30.9022 49.41 36.4904Z" fill="#6EC5A2"/>
<path d="M71.6472 14.8242C65.5493 13.6558 62.3567 16.9032 62.3567 16.9032L61.2364 16.0117L55.832 11.6868C62.4552 5.93551 71.4256 14.608 71.6431 14.8242H71.6472Z" fill="#6EC5A2"/>
<path d="M45.6138 15.9206C47.9526 15.9206 49.8487 14.1677 49.8487 12.0055C49.8487 9.8432 47.9526 8.09033 45.6138 8.09033C43.2749 8.09033 41.3789 9.8432 41.3789 12.0055C41.3789 14.1677 43.2749 15.9206 45.6138 15.9206Z" fill="white"/>
<path d="M124.455 293.793C124.455 293.831 124.455 293.872 124.455 293.914C124.365 295.728 121.583 298.197 117.951 299.848C114.32 301.498 102.263 301.577 99.4114 298.118C98.1803 296.6 97.8644 295.341 97.9177 294.385C97.9349 293.678 98.1887 292.994 98.644 292.427C98.644 292.427 101.106 293.095 106.896 294.904C112.686 296.714 124.008 291.281 124.008 291.281C124.008 291.281 124.517 292.063 124.455 293.793Z" fill="white"/>
<path opacity="0.56" d="M124.456 293.793C121.075 295.994 114.029 298.111 107.841 297.788C100.212 297.386 98.0454 294.563 97.9141 294.374C97.9313 293.668 98.1851 292.984 98.6404 292.416C98.6404 292.416 101.103 293.084 106.893 294.894C112.683 296.703 124.005 291.271 124.005 291.271C124.005 291.271 124.517 292.063 124.456 293.793Z" fill="#354E4C"/>
<path d="M98.2847 287.078C98.2847 287.078 102.438 291.524 110.641 292.101C118.844 292.678 125.175 288.102 125.175 288.102C125.175 288.102 127.227 290.288 122.048 293.008C116.87 295.728 112.869 297.211 105.56 295.663C98.2519 294.116 96.2698 290.788 98.2847 287.078Z" fill="#CEEBE9"/>
<path d="M97.9102 258.409L99.2315 257.681C99.6073 257.474 100.03 257.352 100.466 257.323C100.902 257.294 101.339 257.359 101.743 257.514C108.145 259.882 114.915 261.29 121.797 261.687C122.044 261.7 122.286 261.762 122.506 261.867C122.726 261.972 122.919 262.119 123.074 262.298C123.229 262.476 123.341 262.683 123.404 262.905C123.467 263.126 123.479 263.358 123.438 263.584L121.481 274.972C121.408 275.397 121.218 275.798 120.931 276.136C120.644 276.475 120.268 276.74 119.84 276.907L117.853 277.666L97.9102 258.409Z" fill="#354E4C"/>
<path d="M128.285 356.04C127.875 356.693 120.41 357.964 115.289 358.461H115.195C115.026 358.483 114.907 358.491 114.838 358.495H114.776L116.828 358.844C114.91 359.101 112.978 359.255 111.042 359.307C107.96 359.307 106.007 358.874 105.629 358.013C105.461 357.634 105.592 357.186 106.039 356.651C107.574 354.876 112.351 352.747 111.977 350.444C111.838 349.621 110.094 342.694 107.833 333.634C107.833 333.634 108.128 333.672 108.653 333.722C110.931 333.927 117.566 334.295 123.59 332.326C125.082 331.851 126.508 331.214 127.838 330.429C127.891 330.808 127.936 331.165 127.985 331.533C129.639 344.614 128.798 355.251 128.285 356.04Z" fill="#354E4C"/>
<path d="M107.829 333.654C107.829 333.654 106.598 333.32 107.14 332.515C107.681 331.711 116.098 333.012 122.114 331.343C128.129 329.674 127.797 328.308 128.462 328.437C129.127 328.566 129.664 329.344 128.335 330.129C127.005 330.914 124.966 335.531 107.829 333.654Z" fill="#CEEBE9"/>
<path opacity="0.56" d="M127.982 331.545C129.623 344.614 128.802 355.252 128.285 356.041C127.85 356.716 119.877 358.055 114.743 358.514C117.952 356.132 121.469 351.849 120.735 344.728C119.438 332.095 111.604 309.898 115.851 283.626C120.099 257.354 132.803 237.263 132.803 237.263L143.616 237.156L153.563 236.144C153.563 236.144 124.543 286.498 124.005 291.286C123.468 296.073 125.79 316.006 127.752 329.849C127.834 330.414 127.908 330.979 127.982 331.545Z" fill="#354E4C"/>
<path d="M45.6145 14.771C47.2667 14.771 48.606 13.5328 48.606 12.0054C48.606 10.478 47.2667 9.23975 45.6145 9.23975C43.9624 9.23975 42.623 10.478 42.623 12.0054C42.623 13.5328 43.9624 14.771 45.6145 14.771Z" fill="#1B232A"/>
<path d="M44.8102 3.53799C38.3676 4.67611 36.246 8.57228 35.6018 11.6187C35.6018 11.6187 35.5731 11.5731 35.5566 11.5504C33.4556 8.17394 31.9701 5.3476 31.6008 3.96289C30.8416 1.17828 32.2204 0.328486 33.3571 0.0856868C33.9596 -0.0391029 34.5864 -0.0208312 35.1791 0.138799C38.4573 0.984805 41.6463 2.10215 44.7076 3.47729L44.8102 3.53799Z" fill="#6EC5A2"/>
<path opacity="0.65" d="M142.63 156.915C142.63 156.915 144.173 162.408 141.666 165.375C139.159 168.342 136.828 170.648 139.865 176.498C142.901 182.348 142.253 187.045 137.361 189.845C132.47 192.644 130.385 196.863 133.529 201.882C136.672 206.901 120.455 195.118 122.72 189.613C124.985 184.109 131.645 176.752 131.657 169.833C131.67 162.913 134.76 159.787 134.76 159.787L142.63 156.915Z" fill="#354E4C"/>
<path d="M180.732 196.347C180.364 196.393 179.991 196.367 179.635 196.271C179.279 196.176 178.948 196.013 178.664 195.792C178.38 195.572 178.149 195.299 177.986 194.992C177.823 194.684 177.731 194.349 177.716 194.006L176.862 182.151C176.812 181.433 177.054 180.723 177.54 180.161C178.027 179.6 178.723 179.227 179.492 179.116C179.86 179.071 180.233 179.097 180.589 179.192C180.944 179.288 181.275 179.451 181.559 179.671C181.842 179.892 182.073 180.164 182.237 180.471C182.4 180.779 182.493 181.114 182.509 181.456L183.362 193.312C183.413 194.03 183.172 194.74 182.685 195.302C182.198 195.864 181.501 196.237 180.732 196.347Z" fill="white"/>
<path d="M69.7233 24.521C68.3643 23.5006 66.6319 23.004 64.8868 23.1348C63.1418 23.2656 61.5186 24.0137 60.3552 25.2232C59.1917 26.4327 58.5778 28.0105 58.6412 29.6281C58.7046 31.2456 59.4404 32.7782 60.6954 33.9067C60.6954 33.9067 65.9316 39.2976 80.7249 41.995C80.7249 41.995 80.093 35.8036 70.8764 25.7274C70.5487 25.2818 70.1613 24.8764 69.7233 24.521Z" fill="url(#paint12_linear_858_9912)"/>
<path opacity="0.65" d="M162.148 148.023C162.572 149.406 163.563 150.582 164.91 151.3C167.233 152.602 166.166 155.295 170.655 156.915C175.144 158.535 177.828 158.292 176.047 162.822C174.266 167.352 185.633 160.056 182.576 155.424C179.519 150.792 168.123 146.744 167.856 146.657C167.59 146.57 162.144 145.01 162.148 148.023Z" fill="#354E4C"/>
<path d="M67.0973 25.8376C66.7058 25.5138 66.2492 25.2644 65.7534 25.1038C65.2577 24.9431 64.7325 24.8743 64.208 24.9012C63.6835 24.9282 63.1699 25.0504 62.6964 25.2608C62.223 25.4713 61.799 25.7659 61.4488 26.1278C61.0985 26.4898 60.8287 26.912 60.6549 27.3703C60.4811 27.8286 60.4067 28.3141 60.4359 28.799C60.465 29.2839 60.5972 29.7588 60.8248 30.1965C61.0525 30.6341 61.3712 31.0261 61.7627 31.3499C61.7627 31.3499 64.8404 34.5177 73.5276 36.0997C73.5276 36.0997 73.1583 32.4653 67.7416 26.5471C67.5597 26.2866 67.3432 26.0483 67.0973 25.8376Z" fill="white"/>
<path d="M124.543 77.7852C123.029 80.8202 114.284 78.0318 111.44 70.1218C110.418 67.2765 109.011 65.6604 107.529 64.473C106.96 64.0225 106.365 63.5996 105.749 63.2058C103.697 61.8666 101.69 60.7513 100.586 57.7618C98.358 51.7488 94.0821 52.4885 90.1878 50.4285C89.2783 49.9674 88.4641 49.3612 87.7831 48.6379C86.4412 47.1621 86.5931 45.895 86.5931 45.895C87.4138 48.3685 92.3873 49.8519 96.22 50.5917C100.053 51.3314 100.41 53.9719 101.034 56.4454C101.657 58.9189 105.043 59.985 112.523 64.5185C120.004 69.052 126.057 74.735 124.543 77.7852Z" fill="url(#paint13_linear_858_9912)"/>
<path d="M214.96 162.818C207.874 167.268 212.556 172.211 206.938 174.685C202.129 176.802 200.167 178.262 199.449 180.474C199.327 180.86 199.239 181.255 199.186 181.654C198.776 184.571 192.235 183.103 192.768 178.585C193.273 174.294 197.036 172.962 196.437 169.343C196.407 169.145 196.365 168.948 196.31 168.755C195.173 164.677 191.299 162.935 194.373 158.554C197.446 154.172 196.379 151.452 193.704 151.346C191.028 151.239 192.231 155.648 188.89 156.937C185.55 158.227 184.918 153.273 184.918 153.273C184.918 153.273 183.81 144.289 183.277 142.813L173.49 145.173C173.49 145.173 171.471 144.999 170.383 143.614C169.866 142.961 169.563 142.032 169.772 140.719C169.869 140.146 170.006 139.58 170.182 139.023C171.028 136.22 172.472 135.158 172.472 135.158C172.472 135.158 172.997 134.615 173.884 133.822C176.457 131.523 182.062 127.13 186.633 127.862C192.789 128.852 192.649 131.159 194.923 127.783C195.743 126.595 198.283 125.241 201.312 124.41C206.897 122.874 214.033 123.116 214.571 129.456C215.198 137.111 212.47 139.456 213.815 142.07C213.899 142.235 213.997 142.393 214.107 142.544C214.641 143.265 215.293 143.905 216.04 144.441C218.264 146.141 219.679 148.842 220.065 151.744C220.59 155.769 219.097 160.219 214.96 162.818Z" fill="url(#paint14_linear_858_9912)"/>
<path d="M201.194 149.346C198.518 156.391 194.776 157.135 195.859 161.088C196.91 164.961 196.475 169.165 196.454 169.339C196.424 169.141 196.382 168.945 196.327 168.751C195.19 164.673 191.316 162.932 194.39 158.55C197.464 154.168 196.397 151.448 193.721 151.342C191.046 151.236 192.248 155.644 188.908 156.934C185.567 158.224 184.935 153.269 184.935 153.269C184.935 153.269 183.827 144.285 183.294 142.81L173.507 145.169C173.507 145.169 171.488 144.995 170.4 143.61C170.103 142.096 170.03 140.552 170.183 139.02C170.405 137.176 171.115 135.605 172.547 134.6C172.547 134.6 173.06 134.255 173.884 133.818C175.969 132.707 180.04 130.985 183.027 132.62C187.172 134.896 185.301 138.735 190.512 139.232C195.724 139.729 203.865 142.301 201.194 149.346Z" fill="url(#paint15_linear_858_9912)"/>
<path d="M99.4127 258.511C102.453 259.998 109.138 262.65 118.966 263.181C119.231 263.196 119.489 263.262 119.724 263.375C119.959 263.487 120.166 263.644 120.331 263.836C120.497 264.027 120.617 264.248 120.685 264.485C120.752 264.722 120.765 264.969 120.723 265.211L118.753 276.463C118.678 276.893 118.433 277.282 118.065 277.554C117.697 277.826 117.233 277.962 116.763 277.935C112.425 277.677 100.997 276.592 95.5513 272.115C95.3333 271.934 95.165 271.707 95.0601 271.454C94.9552 271.201 94.9168 270.928 94.948 270.659C95.1655 268.542 95.8016 262.923 96.6961 259.634C96.7657 259.377 96.8976 259.138 97.0817 258.935C97.2658 258.732 97.4975 258.57 97.7591 258.462C98.0208 258.354 98.3056 258.302 98.592 258.31C98.8785 258.319 99.1591 258.388 99.4127 258.511Z" fill="#CEEBE9"/>
<path d="M155.13 149.346L143.418 151.695C143.039 151.768 142.687 151.932 142.399 152.171C142.111 152.411 141.896 152.716 141.777 153.057C141.58 153.66 141.633 154.532 142.244 155.773C144.025 159.396 140.238 161.084 138.367 162.818C136.495 164.548 133.697 166.779 137.378 175.576C140.098 182.067 137.025 184.279 133.721 186.229C132.539 186.87 131.412 187.596 130.352 188.399C126.606 191.491 126.474 191.859 132.983 201.006C139.491 210.152 125.539 217.444 117.484 208.681C109.428 199.917 117.25 189.143 120.056 185.558C120.647 184.823 121.138 184.024 121.517 183.179C122.781 180.265 122.178 176.957 118.288 171.84C113.31 165.288 116.445 156.141 124.033 154.533C128.777 153.527 129.564 152.173 129.491 151.296C129.453 150.978 129.31 150.679 129.08 150.439C121.21 148.607 109.986 142.806 109.986 142.806C110.174 142.356 110.404 141.922 110.672 141.509C111.923 139.638 114.911 136.558 120.286 138.292C127.775 140.704 127.775 138.967 130.315 138.386C132.856 137.806 134.858 137.248 139.589 140.082C144.321 142.916 146.758 136.99 151.079 138.705C152.471 139.255 153.382 140.549 153.981 142.055C155.269 145.226 155.13 149.346 155.13 149.346Z" fill="url(#paint16_linear_858_9912)"/>
<path opacity="0.31" d="M172.264 166.221C172.264 166.221 168.92 166.858 170.081 172.871C171.242 178.884 174.632 182.511 180.159 182.355C185.687 182.2 183.114 176.084 183.114 176.084C183.114 176.084 177.127 175.352 174.907 172.055C172.687 168.759 172.264 166.221 172.264 166.221Z" fill="#354E4C"/>
<path d="M177.125 170.853C177.093 172.124 178.151 172.795 179.391 173.379C181.266 174.26 183.556 174.939 183.137 177.173C182.44 180.887 177.232 181.012 174.171 178.034C171.11 175.056 168.836 168.755 171.372 167.033C173.908 165.31 171.085 164.684 174.171 162.461C176.97 160.443 179.625 159.726 178.558 157.624C178.431 157.379 178.28 157.145 178.106 156.926C176.054 154.27 172.866 156.744 170.851 154.1C168.836 151.455 169.37 149.851 167.363 149.851C165.356 149.851 164.491 149.054 164.117 148.246C163.744 147.438 157.913 148.747 157.913 148.747C157.913 148.747 156.452 144.111 159.234 142.533C161.475 141.262 162.562 141.47 162.927 140.059C163.023 139.616 163.069 139.164 163.063 138.712C163.095 135.761 167.642 132.054 171.655 134.539L171.754 134.604C175.587 137.066 170.966 140.442 172.985 142.616C175.004 144.79 176.949 143.705 177.216 145.56C177.482 147.415 179.001 150.492 181.007 150.359C181.896 150.28 182.793 150.405 183.617 150.723C184.441 151.041 185.167 151.543 185.731 152.184C186.609 153.193 187.29 154.726 187.508 157.032C188.09 163.189 177.212 167.662 177.125 170.853Z" fill="url(#paint17_linear_858_9912)"/>
<path d="M172.3 288.273C172.236 288.845 172.026 289.395 171.689 289.878C170.265 292.017 162.956 294.491 156.805 294.809C150.654 295.128 147.777 292.715 148.249 291.395C148.721 290.075 148.963 289.707 149.763 289.623C150.564 289.54 166.251 290.037 171.689 286.164C172.173 286.77 172.391 287.524 172.3 288.273Z" fill="white"/>
<path opacity="0.56" d="M172.301 288.273C171.439 289.032 169.744 290.731 161.903 292.264C153.892 293.831 148.25 291.399 148.25 291.399C148.738 290.071 148.964 289.711 149.764 289.627C150.564 289.544 166.252 290.041 171.69 286.167C172.173 286.773 172.391 287.525 172.301 288.273Z" fill="#354E4C"/>
<path d="M148.647 286.828C148.647 286.828 160.137 292.139 171.836 283.626C171.836 283.626 172.948 284.931 171.159 286.828C169.37 288.725 165.898 290.785 159.214 291.286C152.529 291.786 148.955 290.709 148.159 289.556C147.363 288.402 148.647 286.828 148.647 286.828Z" fill="#CEEBE9"/>
<path d="M171.406 327.067C171.406 327.234 171.406 327.405 171.385 327.576C171.045 336.301 171.311 349.894 169.473 351.59C168.082 352.876 162.164 353.487 157.708 353.586C157.08 353.586 156.477 353.608 155.927 353.608C155.492 353.821 155.213 353.95 155.164 353.988C154.168 354.012 153.172 353.94 152.193 353.771C151.68 353.631 151.881 353.096 152.46 352.36C153.994 350.399 158.205 346.977 158.615 345.585C158.845 344.799 157.651 338.524 156.058 330.368L156.202 330.402C157.117 330.603 162.283 331.612 166.9 329.989C168.648 329.387 170.199 328.382 171.406 327.067Z" fill="#354E4C"/>
<path d="M156.028 330.361C156.028 330.361 154.866 329.982 155.207 329.496C155.548 329.011 158.646 330.054 161.908 329.929C165.171 329.803 170.169 327.501 171.478 325.532C172.787 323.563 172.442 325.934 171.708 326.723C170.973 327.512 168.15 332.58 156.028 330.361Z" fill="white"/>
<path opacity="0.56" d="M171.603 323.741C171.501 324.837 171.431 326.142 171.374 327.576C171.033 336.302 171.3 349.895 169.461 351.59C168.07 352.876 162.153 353.487 157.696 353.586C159.806 351.731 162.621 348.821 163.679 345.74C165.473 340.551 158.144 308.664 157.524 297.329C156.904 285.993 151.094 240.422 151.094 240.422L153.556 236.136L154.787 235.919L164.894 233.753L168.755 232.52C175.916 230.551 180.098 224.257 180.098 224.257C180.098 224.257 173.532 278.087 171.587 284.513C169.642 290.94 172.313 315.997 171.603 323.741Z" fill="#354E4C"/>
<path opacity="0.18" d="M90.5401 81.0289C89.149 79.0182 87.6676 77.9294 87.0849 78.5251C86.5022 79.1207 86.8633 79.9856 87.327 81.0024C87.0644 80.513 84.2904 75.2814 84.4792 71.996C84.672 68.5817 81.2784 63.1225 81.1758 62.9556C81.303 63.1035 83.9621 66.2258 84.6146 68.6462C85.2793 71.1197 86.3504 74.2078 87.9549 75.5659C89.5594 76.9241 90.4827 80.7861 90.5401 81.0289Z" fill="#354E4C"/>
<path opacity="0.18" d="M114.034 89.6783C113.623 89.5645 102.096 86.4005 99.86 81.0286C97.5825 75.558 97.1763 71.1117 93.1014 68.7634C89.3097 66.5782 86.9173 64.9241 86.6055 64.7041C87.1184 64.9886 92.65 68.0274 94.9932 68.145C97.4553 68.2664 102.901 73.0769 102.983 76.3016C103.073 77.4661 103.498 78.5872 104.214 79.549C103.935 82.952 106.036 86.1539 114.034 89.6783Z" fill="#354E4C"/>
<path d="M92.6172 85.1602C92.718 85.3354 92.7794 85.5277 92.7977 85.7254C92.728 85.5319 92.6664 85.346 92.6172 85.1602Z" fill="#354E4C"/>
<path opacity="0.18" d="M152.118 72.0074C151.846 72.6406 151.508 73.248 151.109 73.8208C150.087 75.2966 149.418 76.7078 149.311 78.0508C149.209 75.7746 148.523 69.8867 144.309 68.0126C139.023 65.6718 134.473 63.9419 134.473 63.9419C134.473 63.9419 149.2 64.4882 152.118 72.0074Z" fill="#354E4C"/>
<path opacity="0.18" d="M118.091 54.6547C112.059 48.6948 107.648 51.8929 106.807 46.9345C105.871 41.4222 94.5575 41.0352 94.5575 41.0352C94.5575 41.0352 89.4239 41.6953 89.0259 39.5974C88.8658 38.7628 89.3213 38.3758 90.1667 38.3037C90.1667 38.3037 88.5252 39.715 92.1897 39.9654C95.8542 40.2158 105.912 42.0254 107.783 44.4951C109.654 46.9648 111.448 49.5218 115.051 51.1683C116.68 51.9005 117.587 53.3269 118.091 54.6547Z" fill="#354E4C"/>
<path opacity="0.18" d="M88.1596 63.5397C86.8317 63.2623 85.5274 62.8958 84.2571 62.4433C77.4821 60.0381 76.7681 54.3854 76.4111 51.0052C76.054 47.6249 74.9707 46.9686 74.9707 46.9686C75.9063 46.7144 77.1866 48.1864 77.9458 52.3292C79.1112 58.7937 86.5058 62.7316 88.1596 63.5397Z" fill="#354E4C"/>
<path d="M129.065 150.424C121.194 148.591 109.971 142.791 109.971 142.791C110.165 142.346 110.4 141.917 110.672 141.509C110.82 141.383 114.124 138.648 117.809 140.822C121.58 143.049 121.403 145.109 124.879 145.109C128.355 145.109 129.397 148.986 129.065 150.424Z" fill="url(#paint18_linear_858_9912)"/>
<path opacity="0.18" d="M155.13 149.346L143.418 151.694C143.039 151.767 142.688 151.932 142.399 152.171C142.111 152.41 141.896 152.716 141.777 153.056C141.777 153.056 140.907 149.839 144.317 148.36C147.727 146.88 152.069 146.596 152.832 143.868C153.041 143.174 153.451 142.546 154.018 142.051C155.27 145.226 155.13 149.346 155.13 149.346Z" fill="#354E4C"/>
<path opacity="0.18" d="M119.548 168.505C122.983 175.922 123.471 180.129 121.514 183.164C122.777 180.25 122.174 176.942 118.284 171.824C113.306 165.273 116.442 156.126 124.029 154.517C128.773 153.512 129.561 152.158 129.487 151.281C129.733 152.158 129.733 153.58 128.087 155.075C125.387 157.503 116.113 161.088 119.548 168.505Z" fill="#354E4C"/>
<path opacity="0.18" d="M133.705 186.233C135.884 181.085 131.653 180.637 131.136 173.679C130.61 166.471 138.112 162.928 138.35 162.822C136.479 164.552 133.68 166.782 137.361 175.58C140.081 182.071 137.008 184.302 133.705 186.233Z" fill="#354E4C"/>
<path d="M178.562 157.613C178.435 157.368 178.284 157.134 178.11 156.915C176.058 154.259 172.87 156.733 170.855 154.089C168.84 151.444 169.374 149.84 167.367 149.84C165.36 149.84 164.495 149.043 164.121 148.235C163.748 147.427 157.917 148.736 157.917 148.736C157.917 148.736 156.456 144.1 159.238 142.521C161.478 141.251 162.566 141.459 162.931 140.048C163.329 139.995 163.731 139.973 164.133 139.983C168.45 140.078 166.71 143.159 169.251 145.204C171.791 147.248 171.04 151.941 175.96 153.057C179.427 153.842 179.066 156.262 178.562 157.613Z" fill="url(#paint19_linear_858_9912)"/>
<path opacity="0.18" d="M172.981 142.593C172.981 142.593 169.908 140.788 170.843 138.701C171.353 137.374 171.657 135.987 171.746 134.581C175.579 137.043 170.958 140.42 172.981 142.593Z" fill="#354E4C"/>
<path opacity="0.18" d="M177.126 170.853C177.093 172.124 178.152 172.795 179.391 173.38C179.391 173.38 174.852 172.211 175.39 168.258C175.928 164.305 184.04 163 185.394 156.915C185.797 155.359 185.91 153.752 185.727 152.161C186.605 153.17 187.286 154.703 187.504 157.01C188.09 163.19 177.212 167.662 177.126 170.853Z" fill="#354E4C"/>
<path opacity="0.18" d="M213.804 142.047C213.669 141.926 211.277 139.771 211.707 135.298C212.155 130.685 212.274 124.52 201.301 124.388C206.886 122.851 214.022 123.094 214.559 129.433C215.187 137.089 212.442 139.433 213.804 142.047Z" fill="#354E4C"/>
<path opacity="0.18" d="M214.961 162.818C207.874 167.268 212.556 172.211 206.938 174.685C202.129 176.802 200.167 178.262 199.449 180.474C199.449 180.19 199.745 176.043 204.045 172.583C208.498 168.998 205.469 164.218 210.549 160.511C215.63 156.805 217.501 151.118 215.474 148.235C217.388 148.879 219.011 150.102 220.078 151.706C220.591 155.769 219.097 160.219 214.961 162.818Z" fill="#354E4C"/>
<path d="M98.7728 118.985C98.7728 118.985 88.9858 117.665 84.2626 112.156C79.5393 106.648 79.527 102.042 81.1808 100.631C82.8345 99.2198 83.6429 104.099 84.082 105.904C84.5211 107.71 86.3636 115.358 98.7728 118.985Z" fill="#45695E"/>
<path d="M85.8589 108.594C85.8589 108.594 84.6279 106.295 84.8823 104.853C85.1367 103.412 85.5881 105.832 85.8589 106.724C86.0137 107.339 86.0137 107.979 85.8589 108.594Z" fill="#45695E"/>
<path d="M160.888 201.112C160.499 201.16 160.104 201.133 159.727 201.032C159.35 200.931 159 200.759 158.699 200.525C158.398 200.292 158.153 200.004 157.98 199.678C157.806 199.353 157.708 198.997 157.692 198.635L156.789 186.074C156.732 185.313 156.988 184.56 157.504 183.966C158.02 183.371 158.76 182.978 159.575 182.864C159.964 182.815 160.36 182.842 160.737 182.943C161.114 183.044 161.464 183.216 161.765 183.449C162.065 183.683 162.31 183.972 162.483 184.297C162.655 184.623 162.753 184.979 162.768 185.341L163.675 197.902C163.731 198.663 163.476 199.416 162.96 200.011C162.444 200.605 161.704 200.998 160.888 201.112Z" fill="white"/>
<path d="M98.9277 259.395C98.9277 259.395 105.945 262.768 111.189 263.344C116.434 263.921 119.015 264.005 118.838 265.735C118.662 267.464 117.948 276.357 116.877 276.736C115.806 277.116 105.469 275.868 101.369 274.221C97.2699 272.575 95.9321 271.418 96.0347 270.678C96.1373 269.938 97.9224 259.395 97.9224 259.395C97.9224 259.395 98.2712 258.739 98.9277 259.395Z" stroke="white" stroke-miterlimit="10"/>
<path opacity="0.29" d="M93.1002 214.853C90.3918 214.762 87.3347 213.354 84.6715 211.025C84.5771 210.797 82.7551 206.26 80.6951 203.798C78.6351 201.336 79.0537 195.793 79.0783 195.615C80.9906 200.869 86.3498 211.454 98.5169 211.268C98.5169 211.268 100.519 215.099 93.1002 214.853Z" fill="#354E4C"/>
<path d="M90.5647 163.437C90.5647 163.437 99.5926 166.824 103.75 166.851C103.75 166.851 104.004 168.748 102.74 168.934C101.476 169.12 92.9202 167.067 91.4962 166.187C90.0723 165.307 90.5647 163.437 90.5647 163.437Z" stroke="white" stroke-miterlimit="10"/>
<path d="M95.354 179.283C96.0996 179.283 96.704 178.724 96.704 178.035C96.704 177.345 96.0996 176.787 95.354 176.787C94.6084 176.787 94.0039 177.345 94.0039 178.035C94.0039 178.724 94.6084 179.283 95.354 179.283Z" stroke="white" stroke-miterlimit="10"/>
<path d="M93.0141 185.011C93.7598 185.011 94.3642 184.453 94.3642 183.763C94.3642 183.074 93.7598 182.515 93.0141 182.515C92.2685 182.515 91.6641 183.074 91.6641 183.763C91.6641 184.453 92.2685 185.011 93.0141 185.011Z" stroke="white" stroke-miterlimit="10"/>
<path d="M161.581 205.046C162.326 205.046 162.931 204.487 162.931 203.798C162.931 203.109 162.326 202.55 161.581 202.55C160.835 202.55 160.23 203.109 160.23 203.798C160.23 204.487 160.835 205.046 161.581 205.046Z" stroke="white" stroke-miterlimit="10"/>
<path d="M181.434 200.27C182.18 200.27 182.784 199.711 182.784 199.022C182.784 198.332 182.18 197.773 181.434 197.773C180.688 197.773 180.084 198.332 180.084 199.022C180.084 199.711 180.688 200.27 181.434 200.27Z" stroke="white" stroke-miterlimit="10"/>
<path opacity="0.25" d="M78.5547 100.366C78.5547 100.366 94.7966 107.741 102.269 118.594C109.742 129.448 110.226 120.928 108.338 118.594C106.451 116.261 103.287 108.048 95.4901 102.782C87.6933 97.5164 79.8473 94.8912 78.5547 100.366Z" fill="white"/>
<path opacity="0.25" d="M107.931 126.049C107.931 126.049 108.124 124.118 109.983 124.126C111.842 124.133 112.506 125.833 111.796 126.622C111.086 127.411 107.471 128.211 107.931 126.049Z" fill="white"/>
<path d="M129.078 354.2C128.95 355.49 128.799 356.291 128.667 356.476C128.093 357.36 115.433 359.31 111.022 359.31C107.94 359.31 105.987 358.878 105.609 358.017C105.609 358.032 124.272 357.455 129.078 354.2Z" fill="#CEEBE9"/>
<path d="M170.343 351.116C170.247 351.383 170.093 351.63 169.892 351.841C167.635 353.935 154.069 354.284 152.181 353.757C151.668 353.616 151.869 353.081 152.448 352.345C152.448 352.345 162.432 353.521 170.343 351.116Z" fill="#CEEBE9"/>
<path d="M187.528 353.043H176.858C176.858 353.043 174.716 348.954 176.858 346.484C179 344.014 180.638 335.103 180.638 335.103L184.442 327.826C184.442 327.826 190.494 320.763 191.565 319.279C192.637 317.796 193.962 323.961 199.448 326.442C204.935 328.923 207.873 336.051 207.873 336.051L187.528 353.043Z" fill="url(#paint20_linear_858_9912)"/>
<path opacity="0.18" d="M105.749 63.2056C103.697 61.8665 101.69 60.7511 100.586 57.7616C98.3581 51.7486 94.0822 52.4883 90.1879 50.4283C89.2784 49.9672 88.4643 49.361 87.7832 48.6377C91.0004 50.2083 96.454 51.6347 97.7344 52.2417C99.4743 53.065 101.243 57.0181 102.146 59.3284C102.65 60.66 104.37 62.17 105.749 63.2056Z" fill="#354E4C"/>
<path d="M49.4108 36.4904C49.3164 36.331 46.5383 31.5395 50.2603 26.7974L51.3067 27.8331C51.3067 27.8331 47.9171 30.9022 49.4108 36.4904Z" fill="url(#paint21_linear_858_9912)"/>
<path d="M71.6471 14.8242C65.5492 13.6557 62.3566 16.9032 62.3566 16.9032L61.2363 16.0117C61.2363 16.0117 66.0785 12.6997 71.643 14.8204L71.6471 14.8242Z" fill="url(#paint22_linear_858_9912)"/>
<path d="M94.2632 123.564C94.4151 123.564 94.5382 123.45 94.5382 123.31C94.5382 123.169 94.4151 123.056 94.2632 123.056C94.1114 123.056 93.9883 123.169 93.9883 123.31C93.9883 123.45 94.1114 123.564 94.2632 123.564Z" fill="white"/>
<path d="M323.355 353.044H187.527C187.527 339.14 195.012 337.042 199.017 333.195C200.048 332.221 200.989 331.171 201.832 330.054C202.957 328.565 203.814 326.917 204.368 325.175C204.902 323.695 206.24 322.952 206.24 320.243C206.24 317.534 208.911 317.773 208.168 311.096C208.064 310.098 208.077 309.092 208.205 308.095C208.948 301.703 213.749 293.641 220.409 288.19C228.165 281.847 234.045 255.48 236.454 247.57C238.863 239.66 243.939 242.874 245.81 245.84C247.682 248.807 256.237 263.637 265.06 267.085C273.883 270.534 278.967 279.942 279.234 287.932C279.278 288.813 279.447 289.686 279.739 290.527C280.97 294.21 284.191 298.547 287.605 302.587C287.607 302.596 287.607 302.605 287.605 302.613C291.093 306.737 294.766 310.554 296.674 313.042C296.953 313.422 297.195 313.741 297.392 314.044C300.601 318.976 305.948 323.934 313.966 328.377C321.985 332.819 323.355 353.044 323.355 353.044Z" fill="url(#paint23_linear_858_9912)"/>
<path d="M50.1211 359.326H98.773C98.773 359.326 100.853 355.498 97.5419 353.586C94.2303 351.674 93.5861 336.302 90.3032 334.101C87.0204 331.901 84.0781 327.838 84.0781 327.838C84.0781 327.838 86.6551 317.052 77.2128 328.43C67.7705 339.807 67.2699 345.74 64.3112 347.47C61.3525 349.2 55.7348 347.592 54.6678 351.116C53.6009 354.641 50.1211 359.326 50.1211 359.326Z" fill="url(#paint24_linear_858_9912)"/>
<path d="M241.042 242.597C241.042 242.597 236.216 257.013 236.754 265.405C237.292 273.796 234.879 285.997 233.545 288.926C232.211 291.855 222.818 295.705 220.159 300.948C217.5 306.191 221.242 291.688 226.056 286.828C230.869 281.968 235.17 246.736 241.042 242.597Z" fill="url(#paint25_linear_858_9912)"/>
<path opacity="0.56" d="M219.277 302.074C219.277 302.074 213.491 312.37 212.44 316.323C211.39 320.277 201.738 330.91 201.738 330.91C201.738 330.91 201.779 330.599 201.857 330.049C202.982 328.56 203.839 326.913 204.393 325.17C204.927 323.691 206.265 322.947 206.265 320.239C206.265 317.53 208.936 317.769 208.193 311.092C208.089 310.093 208.102 309.087 208.23 308.091C212.03 305.25 219.277 302.074 219.277 302.074Z" fill="#354E4C"/>
<path opacity="0.4" d="M221.69 353.043C221.69 353.043 225.97 324.238 228.998 320.774C232.026 317.31 236.306 299.464 237.73 296.115C239.154 292.765 241.14 288.812 241.042 287.078C240.943 285.344 241.042 282.047 241.042 282.047C241.042 282.047 236.306 293.205 234.168 294.567C232.031 295.929 218.481 306.293 217.41 309.742C216.338 313.19 211.172 331.567 202.793 336.063C194.413 340.558 188.147 346.814 188.147 346.814L187.527 353.051L221.69 353.043Z" fill="#354E4C"/>
<path opacity="0.4" d="M323.357 353.044H234.527C234.527 353.044 240.408 325.061 242.012 321.935C243.617 318.809 244.688 292.678 247.347 288.929C250.006 285.181 249.665 273.811 248.951 271.505C248.237 269.198 244.495 261.869 244.495 259.107C244.495 256.345 243.264 247.115 243.264 247.115C243.264 247.115 255.919 264.987 261.09 267.506C266.26 270.025 275.35 278.129 276.597 283.629C276.897 284.957 278.025 287.446 279.753 290.538C282.103 294.704 284.73 298.732 287.619 302.598C287.621 302.607 287.621 302.616 287.619 302.625C290.339 306.318 293.371 309.805 296.688 313.054C296.967 313.433 297.209 313.752 297.406 314.055C300.615 318.987 305.962 323.946 313.981 328.388C321.999 332.83 323.357 353.044 323.357 353.044Z" fill="#354E4C"/>
<path opacity="0.56" d="M180.638 222.998C180.504 223.435 180.328 223.86 180.113 224.269C180.018 225.027 173.547 278.14 171.602 284.517C169.657 290.894 172.312 316.005 171.602 323.737C171.512 324.7 171.446 325.827 171.393 327.064C171.393 327.231 171.393 327.401 171.372 327.572C171.032 336.298 171.298 349.891 169.46 351.587C168.069 352.873 162.151 353.483 157.695 353.582C157.067 353.582 156.464 353.605 155.914 353.605C158.557 352.307 167.063 347.88 166.608 344.724C166.39 343.206 166.735 337.22 166.871 329.966C167.063 319.419 166.817 306.187 163.748 300.075C158.569 289.768 153.948 263.428 160.284 249.933C162.529 245.142 163.863 239.345 164.651 233.856C164.917 231.981 165.122 230.149 165.278 228.4C165.381 227.228 165.463 226.09 165.525 225.012C165.598 223.772 165.652 222.607 165.685 221.537C165.685 221.298 165.685 221.063 165.705 220.832C165.705 220.073 165.734 219.405 165.738 218.783C165.738 216.359 165.693 214.883 165.693 214.883L179.169 210.099C179.292 212.44 179.243 211.617 179.28 212.451C179.28 212.831 179.308 213.058 179.308 213.058C179.983 213.728 180.428 214.568 180.589 215.471C180.589 215.471 181.13 217.694 180.63 219.549C180.129 221.404 181.139 221.404 180.638 222.998Z" fill="#354E4C"/>
<path opacity="0.56" d="M153.563 236.144L142.771 262.131C142.336 260.37 141.95 258.716 141.602 257.233L153.563 236.144Z" fill="#354E4C"/>
<path opacity="0.56" d="M124.005 291.285C123.472 296.065 125.79 316.005 127.752 329.849C127.78 330.05 127.809 330.251 127.834 330.448C127.887 330.827 127.932 331.184 127.981 331.552C129.623 344.621 128.802 355.259 128.285 356.048C127.875 356.701 120.41 357.972 115.289 358.469C117.341 358.165 124.699 356.109 124.461 342.288C124.353 338.965 124.061 335.648 123.586 332.352C121.35 315.444 115.95 292.139 120.747 281.862C126.59 269.365 140.469 245.506 140.35 242.604C140.231 239.702 148.631 236.758 148.631 236.758L153.555 236.151V236.185C152.693 237.653 124.534 286.57 124.005 291.285Z" fill="#354E4C"/>
<path opacity="0.56" d="M180.638 222.998C180.504 223.435 180.328 223.86 180.113 224.269C178.943 226.496 175.468 230.718 164.651 233.833C159.862 235.158 154.955 236.084 149.989 236.603C149.533 236.656 149.082 236.705 148.63 236.747C131.806 238.477 118.674 236.132 111.189 233.791C120.25 233.947 119.105 231.894 124.46 230.165C129.816 228.435 137.419 229.683 144.305 229.144C151.191 228.605 164.823 223.624 171.512 220.798C174.141 219.734 176.522 218.21 178.525 216.31C179.173 215.702 179.733 215.018 180.191 214.276C180.394 214.656 180.533 215.063 180.601 215.483C180.601 215.483 181.143 217.706 180.642 219.561C180.142 221.416 181.139 221.405 180.638 222.998Z" fill="#354E4C"/>
<defs>
<linearGradient id="paint0_linear_858_9912" x1="180.114" y1="307.204" x2="180.114" y2="386.603" gradientUnits="userSpaceOnUse">
<stop stop-color="white"/>
<stop offset="0.38" stop-color="#99D0B5"/>
<stop offset="0.99" stop-color="#5F9D84"/>
</linearGradient>
<linearGradient id="paint1_linear_858_9912" x1="68.0235" y1="81.4235" x2="136.226" y2="136.643" gradientUnits="userSpaceOnUse">
<stop offset="0.41" stop-color="#99D0B5"/>
<stop offset="1" stop-color="#45695E"/>
</linearGradient>
<linearGradient id="paint2_linear_858_9912" x1="37268.3" y1="16396.3" x2="51657.6" y2="16396.3" gradientUnits="userSpaceOnUse">
<stop stop-color="white"/>
<stop offset="0.38" stop-color="#99D0B5"/>
<stop offset="0.99" stop-color="#5F9D84"/>
</linearGradient>
<linearGradient id="paint3_linear_858_9912" x1="76.932" y1="102.926" x2="117.67" y2="129.718" gradientUnits="userSpaceOnUse">
<stop stop-color="#45695E"/>
<stop offset="0.87" stop-color="#1B232A"/>
</linearGradient>
<linearGradient id="paint4_linear_858_9912" x1="2668.06" y1="2492.87" x2="2771.29" y2="2508.32" gradientUnits="userSpaceOnUse">
<stop stop-color="#45695E"/>
<stop offset="0.87" stop-color="#1B232A"/>
</linearGradient>
<linearGradient id="paint5_linear_858_9912" x1="22796.5" y1="29729.9" x2="31046.6" y2="29729.9" gradientUnits="userSpaceOnUse">
<stop stop-color="white"/>
<stop offset="0.38" stop-color="#99D0B5"/>
<stop offset="0.99" stop-color="#5F9D84"/>
</linearGradient>
<linearGradient id="paint6_linear_858_9912" x1="21247.3" y1="6986.42" x2="26767.7" y2="6986.42" gradientUnits="userSpaceOnUse">
<stop stop-color="white"/>
<stop offset="0.38" stop-color="#99D0B5"/>
<stop offset="0.99" stop-color="#5F9D84"/>
</linearGradient>
<linearGradient id="paint7_linear_858_9912" x1="48283.4" y1="39131.1" x2="67559.6" y2="54314.8" gradientUnits="userSpaceOnUse">
<stop stop-color="white"/>
<stop offset="0.38" stop-color="#99D0B5"/>
<stop offset="0.99" stop-color="#5F9D84"/>
</linearGradient>
<linearGradient id="paint8_linear_858_9912" x1="33702.2" y1="41180.1" x2="48822" y2="46641.7" gradientUnits="userSpaceOnUse">
<stop stop-color="white"/>
<stop offset="0.38" stop-color="#99D0B5"/>
<stop offset="0.99" stop-color="#5F9D84"/>
</linearGradient>
<linearGradient id="paint9_linear_858_9912" x1="146.952" y1="139.19" x2="150.064" y2="211.26" gradientUnits="userSpaceOnUse">
<stop stop-color="#F8BA67"/>
<stop offset="0.38" stop-color="#99D0B5"/>
<stop offset="0.99" stop-color="#518273"/>
</linearGradient>
<linearGradient id="paint10_linear_858_9912" x1="126.89" y1="142.521" x2="126.89" y2="220.786" gradientUnits="userSpaceOnUse">
<stop stop-color="#F8BA67"/>
<stop offset="0.38" stop-color="#99D0B5"/>
<stop offset="0.99" stop-color="#6FC29F"/>
</linearGradient>
<linearGradient id="paint11_linear_858_9912" x1="12545.2" y1="5316.33" x2="15419" y2="8637.46" gradientUnits="userSpaceOnUse">
<stop stop-color="white"/>
<stop offset="0.38" stop-color="#99D0B5"/>
<stop offset="0.99" stop-color="#5F9D84"/>
</linearGradient>
<linearGradient id="paint12_linear_858_9912" x1="59.9732" y1="25.0597" x2="77.0368" y2="41.0344" gradientUnits="userSpaceOnUse">
<stop stop-color="#EE7671"/>
<stop offset="1" stop-color="#1B232A" stop-opacity="0"/>
</linearGradient>
<linearGradient id="paint13_linear_858_9912" x1="105.231" y1="59.1921" x2="111.305" y2="94.0821" gradientUnits="userSpaceOnUse">
<stop stop-color="white"/>
<stop offset="1" stop-color="#B4E4F4"/>
</linearGradient>
<linearGradient id="paint14_linear_858_9912" x1="33235" y1="33126.6" x2="39419.7" y2="32508.4" gradientUnits="userSpaceOnUse">
<stop stop-color="white"/>
<stop offset="0.38" stop-color="#99D0B5"/>
<stop offset="0.99" stop-color="#5F9D84"/>
</linearGradient>
<linearGradient id="paint15_linear_858_9912" x1="20796.8" y1="20455.2" x2="23244.3" y2="20211.1" gradientUnits="userSpaceOnUse">
<stop stop-color="white"/>
<stop offset="0.38" stop-color="#99D0B5"/>
<stop offset="0.99" stop-color="#5F9D84"/>
</linearGradient>
<linearGradient id="paint16_linear_858_9912" x1="22957.5" y1="43778.6" x2="28004.5" y2="44907.7" gradientUnits="userSpaceOnUse">
<stop stop-color="white"/>
<stop offset="0.38" stop-color="#99D0B5"/>
<stop offset="0.99" stop-color="#5F9D84"/>
</linearGradient>
<linearGradient id="paint17_linear_858_9912" x1="18348.5" y1="25715.5" x2="21909.1" y2="25933.1" gradientUnits="userSpaceOnUse">
<stop stop-color="white"/>
<stop offset="0.38" stop-color="#99D0B5"/>
<stop offset="0.99" stop-color="#5F9D84"/>
</linearGradient>
<linearGradient id="paint18_linear_858_9912" x1="9916.97" y1="5558.27" x2="10592.8" y2="6018.32" gradientUnits="userSpaceOnUse">
<stop stop-color="white"/>
<stop offset="0.38" stop-color="#99D0B5"/>
<stop offset="0.99" stop-color="#5F9D84"/>
</linearGradient>
<linearGradient id="paint19_linear_858_9912" x1="13176.8" y1="9499.06" x2="14979.1" y2="9705.52" gradientUnits="userSpaceOnUse">
<stop stop-color="white"/>
<stop offset="0.38" stop-color="#99D0B5"/>
<stop offset="0.99" stop-color="#5F9D84"/>
</linearGradient>
<linearGradient id="paint20_linear_858_9912" x1="22545.6" y1="32590.4" x2="22470.1" y2="36261.4" gradientUnits="userSpaceOnUse">
<stop stop-color="white"/>
<stop offset="0.38" stop-color="#99D0B5"/>
<stop offset="0.99" stop-color="#5F9D84"/>
</linearGradient>
<linearGradient id="paint21_linear_858_9912" x1="951.831" y1="1731.7" x2="1423.11" y2="1879.94" gradientUnits="userSpaceOnUse">
<stop stop-color="#45695E"/>
<stop offset="0.87" stop-color="#1B232A"/>
</linearGradient>
<linearGradient id="paint22_linear_858_9912" x1="3655.23" y1="390.314" x2="3771.55" y2="834.062" gradientUnits="userSpaceOnUse">
<stop stop-color="#45695E"/>
<stop offset="0.87" stop-color="#1B232A"/>
</linearGradient>
<linearGradient id="paint23_linear_858_9912" x1="116020" y1="86565.8" x2="116020" y2="118717" gradientUnits="userSpaceOnUse">
<stop stop-color="white"/>
<stop offset="0.38" stop-color="#99D0B5"/>
<stop offset="0.99" stop-color="#5F9D84"/>
</linearGradient>
<linearGradient id="paint24_linear_858_9912" x1="20720.3" y1="34628.6" x2="20527" y2="39910.2" gradientUnits="userSpaceOnUse">
<stop stop-color="white"/>
<stop offset="0.38" stop-color="#99D0B5"/>
<stop offset="0.99" stop-color="#5F9D84"/>
</linearGradient>
<linearGradient id="paint25_linear_858_9912" x1="17807.7" y1="45996.6" x2="12401.4" y2="57815.3" gradientUnits="userSpaceOnUse">
<stop stop-color="white"/>
<stop offset="0.38" stop-color="#99D0B5"/>
<stop offset="0.99" stop-color="#5F9D84"/>
</linearGradient>
</defs>
</svg>
